<mxfile host="app.diagrams.net" agent="Mozilla/5.0 (Windows NT 10.0; Win64; x64) AppleWebKit/537.36 (KHTML, like Gecko) Chrome/129.0.0.0 Safari/537.36" version="24.7.17">
  <diagram name="Страница — 1" id="39gWals8eH3sIh328P3P">
    <mxGraphModel dx="2074" dy="1106" grid="1" gridSize="10" guides="1" tooltips="1" connect="1" arrows="1" fold="1" page="1" pageScale="1" pageWidth="827" pageHeight="1169" math="0" shadow="0">
      <root>
        <mxCell id="0" />
        <mxCell id="1" parent="0" />
        <mxCell id="hMZI5rb7RULNZgoVv10F-1" value="&lt;div&gt;Человек, &lt;br&gt;пересекающий границу&lt;/div&gt;" style="shape=umlActor;verticalLabelPosition=bottom;verticalAlign=top;html=1;outlineConnect=0;" vertex="1" parent="1">
          <mxGeometry x="80" y="100" width="30" height="60" as="geometry" />
        </mxCell>
        <mxCell id="hMZI5rb7RULNZgoVv10F-3" value="Сотрудник пограничного&lt;br&gt;контроля" style="shape=umlActor;verticalLabelPosition=bottom;verticalAlign=top;html=1;outlineConnect=0;" vertex="1" parent="1">
          <mxGeometry x="80" y="410" width="30" height="60" as="geometry" />
        </mxCell>
        <mxCell id="hMZI5rb7RULNZgoVv10F-4" value="Администратор&lt;br&gt;системы&lt;div&gt;&lt;br&gt;&lt;/div&gt;" style="shape=umlActor;verticalLabelPosition=bottom;verticalAlign=top;html=1;outlineConnect=0;" vertex="1" parent="1">
          <mxGeometry x="80" y="720" width="30" height="60" as="geometry" />
        </mxCell>
        <mxCell id="hMZI5rb7RULNZgoVv10F-5" value="Просмотр информации о пересечении границы" style="ellipse;whiteSpace=wrap;html=1;" vertex="1" parent="1">
          <mxGeometry x="280" y="260" width="120" height="80" as="geometry" />
        </mxCell>
        <mxCell id="hMZI5rb7RULNZgoVv10F-6" value="Регистрация транспортного средства" style="ellipse;whiteSpace=wrap;html=1;" vertex="1" parent="1">
          <mxGeometry x="280" y="20" width="120" height="80" as="geometry" />
        </mxCell>
        <mxCell id="hMZI5rb7RULNZgoVv10F-7" value="Проверка документов" style="ellipse;whiteSpace=wrap;html=1;" vertex="1" parent="1">
          <mxGeometry x="280" y="490" width="120" height="80" as="geometry" />
        </mxCell>
        <mxCell id="hMZI5rb7RULNZgoVv10F-8" value="Фиксация пересечения границы" style="ellipse;whiteSpace=wrap;html=1;" vertex="1" parent="1">
          <mxGeometry x="280" y="370" width="120" height="80" as="geometry" />
        </mxCell>
        <mxCell id="hMZI5rb7RULNZgoVv10F-9" value="Генерация отчетов" style="ellipse;whiteSpace=wrap;html=1;" vertex="1" parent="1">
          <mxGeometry x="280" y="740" width="120" height="80" as="geometry" />
        </mxCell>
        <mxCell id="hMZI5rb7RULNZgoVv10F-10" value="Управление данными" style="ellipse;whiteSpace=wrap;html=1;" vertex="1" parent="1">
          <mxGeometry x="280" y="880" width="120" height="80" as="geometry" />
        </mxCell>
        <mxCell id="hMZI5rb7RULNZgoVv10F-11" value="Аудит системы" style="ellipse;whiteSpace=wrap;html=1;" vertex="1" parent="1">
          <mxGeometry x="280" y="620" width="120" height="80" as="geometry" />
        </mxCell>
        <mxCell id="hMZI5rb7RULNZgoVv10F-12" value="" style="endArrow=classic;html=1;rounded=0;" edge="1" parent="1" source="hMZI5rb7RULNZgoVv10F-1" target="hMZI5rb7RULNZgoVv10F-5">
          <mxGeometry width="50" height="50" relative="1" as="geometry">
            <mxPoint x="140" y="140" as="sourcePoint" />
            <mxPoint x="250" y="100" as="targetPoint" />
          </mxGeometry>
        </mxCell>
        <mxCell id="hMZI5rb7RULNZgoVv10F-13" value="" style="endArrow=classic;html=1;rounded=0;" edge="1" parent="1" source="hMZI5rb7RULNZgoVv10F-3" target="hMZI5rb7RULNZgoVv10F-5">
          <mxGeometry width="50" height="50" relative="1" as="geometry">
            <mxPoint x="120" y="280" as="sourcePoint" />
            <mxPoint x="260" y="220" as="targetPoint" />
          </mxGeometry>
        </mxCell>
        <mxCell id="hMZI5rb7RULNZgoVv10F-14" value="" style="endArrow=classic;html=1;rounded=0;" edge="1" parent="1" source="hMZI5rb7RULNZgoVv10F-3" target="hMZI5rb7RULNZgoVv10F-7">
          <mxGeometry width="50" height="50" relative="1" as="geometry">
            <mxPoint x="210" y="465" as="sourcePoint" />
            <mxPoint x="260" y="415" as="targetPoint" />
          </mxGeometry>
        </mxCell>
        <mxCell id="hMZI5rb7RULNZgoVv10F-15" value="" style="endArrow=classic;html=1;rounded=0;" edge="1" parent="1" source="hMZI5rb7RULNZgoVv10F-3" target="hMZI5rb7RULNZgoVv10F-8">
          <mxGeometry width="50" height="50" relative="1" as="geometry">
            <mxPoint x="190" y="520" as="sourcePoint" />
            <mxPoint x="240" y="470" as="targetPoint" />
          </mxGeometry>
        </mxCell>
        <mxCell id="hMZI5rb7RULNZgoVv10F-16" value="" style="endArrow=classic;html=1;rounded=0;" edge="1" parent="1" source="hMZI5rb7RULNZgoVv10F-4" target="hMZI5rb7RULNZgoVv10F-9">
          <mxGeometry width="50" height="50" relative="1" as="geometry">
            <mxPoint x="130" y="720" as="sourcePoint" />
            <mxPoint x="240" y="710" as="targetPoint" />
          </mxGeometry>
        </mxCell>
        <mxCell id="hMZI5rb7RULNZgoVv10F-17" value="" style="endArrow=classic;html=1;rounded=0;" edge="1" parent="1" source="hMZI5rb7RULNZgoVv10F-4" target="hMZI5rb7RULNZgoVv10F-10">
          <mxGeometry width="50" height="50" relative="1" as="geometry">
            <mxPoint x="180" y="800" as="sourcePoint" />
            <mxPoint x="230" y="750" as="targetPoint" />
          </mxGeometry>
        </mxCell>
        <mxCell id="hMZI5rb7RULNZgoVv10F-18" value="" style="endArrow=classic;html=1;rounded=0;" edge="1" parent="1" source="hMZI5rb7RULNZgoVv10F-4" target="hMZI5rb7RULNZgoVv10F-11">
          <mxGeometry width="50" height="50" relative="1" as="geometry">
            <mxPoint x="160" y="860" as="sourcePoint" />
            <mxPoint x="210" y="810" as="targetPoint" />
          </mxGeometry>
        </mxCell>
        <mxCell id="hMZI5rb7RULNZgoVv10F-19" value="&amp;lt;&amp;lt;include&amp;gt;&amp;gt;" style="html=1;verticalAlign=bottom;labelBackgroundColor=none;endArrow=open;endFill=0;dashed=1;rounded=0;" edge="1" parent="1" source="hMZI5rb7RULNZgoVv10F-8" target="hMZI5rb7RULNZgoVv10F-7">
          <mxGeometry width="160" relative="1" as="geometry">
            <mxPoint x="380" y="450" as="sourcePoint" />
            <mxPoint x="540" y="450" as="targetPoint" />
          </mxGeometry>
        </mxCell>
        <mxCell id="hMZI5rb7RULNZgoVv10F-20" value="&amp;lt;&amp;lt;extend&amp;gt;&amp;gt;" style="html=1;verticalAlign=bottom;labelBackgroundColor=none;endArrow=open;endFill=0;dashed=1;rounded=0;entryX=0;entryY=0.5;entryDx=0;entryDy=0;" edge="1" parent="1" source="hMZI5rb7RULNZgoVv10F-5" target="hMZI5rb7RULNZgoVv10F-21">
          <mxGeometry width="160" relative="1" as="geometry">
            <mxPoint x="400" y="69.5" as="sourcePoint" />
            <mxPoint x="500" y="70" as="targetPoint" />
          </mxGeometry>
        </mxCell>
        <mxCell id="hMZI5rb7RULNZgoVv10F-21" value="Доступ к истории пересечений" style="ellipse;whiteSpace=wrap;html=1;" vertex="1" parent="1">
          <mxGeometry x="520" y="260" width="120" height="80" as="geometry" />
        </mxCell>
        <mxCell id="hMZI5rb7RULNZgoVv10F-22" value="" style="endArrow=classic;html=1;rounded=0;" edge="1" parent="1" source="hMZI5rb7RULNZgoVv10F-1" target="hMZI5rb7RULNZgoVv10F-6">
          <mxGeometry width="50" height="50" relative="1" as="geometry">
            <mxPoint x="210" y="95" as="sourcePoint" />
            <mxPoint x="240" y="90" as="targetPoint" />
          </mxGeometry>
        </mxCell>
        <mxCell id="hMZI5rb7RULNZgoVv10F-23" value="Регистрация пассажира" style="ellipse;whiteSpace=wrap;html=1;" vertex="1" parent="1">
          <mxGeometry x="280" y="140" width="120" height="80" as="geometry" />
        </mxCell>
        <mxCell id="hMZI5rb7RULNZgoVv10F-24" value="" style="endArrow=classic;html=1;rounded=0;" edge="1" parent="1" source="hMZI5rb7RULNZgoVv10F-1" target="hMZI5rb7RULNZgoVv10F-23">
          <mxGeometry width="50" height="50" relative="1" as="geometry">
            <mxPoint x="390" y="590" as="sourcePoint" />
            <mxPoint x="440" y="540" as="targetPoint" />
          </mxGeometry>
        </mxCell>
        <mxCell id="hMZI5rb7RULNZgoVv10F-25" value="" style="endArrow=classic;html=1;rounded=0;" edge="1" parent="1" source="hMZI5rb7RULNZgoVv10F-4" target="hMZI5rb7RULNZgoVv10F-7">
          <mxGeometry width="50" height="50" relative="1" as="geometry">
            <mxPoint x="80" y="640" as="sourcePoint" />
            <mxPoint x="130" y="590" as="targetPoint" />
          </mxGeometry>
        </mxCell>
        <mxCell id="hMZI5rb7RULNZgoVv10F-26" value="Проверка регистрационных данных" style="ellipse;whiteSpace=wrap;html=1;" vertex="1" parent="1">
          <mxGeometry x="520" y="20" width="120" height="80" as="geometry" />
        </mxCell>
        <mxCell id="hMZI5rb7RULNZgoVv10F-29" value="&amp;lt;&amp;lt;include&amp;gt;&amp;gt;" style="html=1;verticalAlign=bottom;labelBackgroundColor=none;endArrow=open;endFill=0;dashed=1;rounded=0;" edge="1" parent="1" source="hMZI5rb7RULNZgoVv10F-6" target="hMZI5rb7RULNZgoVv10F-26">
          <mxGeometry width="160" relative="1" as="geometry">
            <mxPoint x="414" y="140" as="sourcePoint" />
            <mxPoint x="574" y="140" as="targetPoint" />
          </mxGeometry>
        </mxCell>
        <mxCell id="hMZI5rb7RULNZgoVv10F-30" value="Проверка паспортных данных" style="ellipse;whiteSpace=wrap;html=1;" vertex="1" parent="1">
          <mxGeometry x="520" y="140" width="120" height="80" as="geometry" />
        </mxCell>
        <mxCell id="hMZI5rb7RULNZgoVv10F-31" value="&amp;lt;&amp;lt;include&amp;gt;&amp;gt;" style="html=1;verticalAlign=bottom;labelBackgroundColor=none;endArrow=open;endFill=0;dashed=1;rounded=0;" edge="1" parent="1" source="hMZI5rb7RULNZgoVv10F-23" target="hMZI5rb7RULNZgoVv10F-30">
          <mxGeometry width="160" relative="1" as="geometry">
            <mxPoint x="460" y="439.5" as="sourcePoint" />
            <mxPoint x="620" y="439.5" as="targetPoint" />
          </mxGeometry>
        </mxCell>
        <mxCell id="hMZI5rb7RULNZgoVv10F-32" value="Проверка визового статуса" style="ellipse;whiteSpace=wrap;html=1;" vertex="1" parent="1">
          <mxGeometry x="520" y="360" width="120" height="80" as="geometry" />
        </mxCell>
        <mxCell id="hMZI5rb7RULNZgoVv10F-33" value="&amp;lt;&amp;lt;include&amp;gt;&amp;gt;" style="html=1;verticalAlign=bottom;labelBackgroundColor=none;endArrow=open;endFill=0;dashed=1;rounded=0;" edge="1" parent="1" source="hMZI5rb7RULNZgoVv10F-7" target="hMZI5rb7RULNZgoVv10F-32">
          <mxGeometry width="160" relative="1" as="geometry">
            <mxPoint x="450" y="610" as="sourcePoint" />
            <mxPoint x="610" y="610" as="targetPoint" />
          </mxGeometry>
        </mxCell>
        <mxCell id="hMZI5rb7RULNZgoVv10F-34" value="Анализ данных о пересечениях" style="ellipse;whiteSpace=wrap;html=1;" vertex="1" parent="1">
          <mxGeometry x="520" y="580" width="120" height="80" as="geometry" />
        </mxCell>
        <mxCell id="hMZI5rb7RULNZgoVv10F-35" value="Формирование статистики" style="ellipse;whiteSpace=wrap;html=1;" vertex="1" parent="1">
          <mxGeometry x="520" y="700" width="120" height="80" as="geometry" />
        </mxCell>
        <mxCell id="hMZI5rb7RULNZgoVv10F-37" value="&amp;lt;&amp;lt;include&amp;gt;&amp;gt;" style="html=1;verticalAlign=bottom;labelBackgroundColor=none;endArrow=open;endFill=0;dashed=1;rounded=0;" edge="1" parent="1" source="hMZI5rb7RULNZgoVv10F-9" target="hMZI5rb7RULNZgoVv10F-34">
          <mxGeometry width="160" relative="1" as="geometry">
            <mxPoint x="380" y="580" as="sourcePoint" />
            <mxPoint x="540" y="580" as="targetPoint" />
          </mxGeometry>
        </mxCell>
        <mxCell id="hMZI5rb7RULNZgoVv10F-38" value="&amp;lt;&amp;lt;include&amp;gt;&amp;gt;" style="html=1;verticalAlign=bottom;labelBackgroundColor=none;endArrow=open;endFill=0;dashed=1;rounded=0;" edge="1" parent="1" source="hMZI5rb7RULNZgoVv10F-9" target="hMZI5rb7RULNZgoVv10F-35">
          <mxGeometry width="160" relative="1" as="geometry">
            <mxPoint x="390" y="584" as="sourcePoint" />
            <mxPoint x="550" y="584" as="targetPoint" />
          </mxGeometry>
        </mxCell>
        <mxCell id="hMZI5rb7RULNZgoVv10F-39" value="Обновление данных о сотрудниках" style="ellipse;whiteSpace=wrap;html=1;" vertex="1" parent="1">
          <mxGeometry x="520" y="810" width="120" height="80" as="geometry" />
        </mxCell>
        <mxCell id="hMZI5rb7RULNZgoVv10F-40" value="&amp;lt;&amp;lt;include&amp;gt;&amp;gt;" style="html=1;verticalAlign=bottom;labelBackgroundColor=none;endArrow=open;endFill=0;dashed=1;rounded=0;" edge="1" parent="1" source="hMZI5rb7RULNZgoVv10F-10" target="hMZI5rb7RULNZgoVv10F-39">
          <mxGeometry width="160" relative="1" as="geometry">
            <mxPoint x="500" y="819" as="sourcePoint" />
            <mxPoint x="660" y="819" as="targetPoint" />
          </mxGeometry>
        </mxCell>
        <mxCell id="hMZI5rb7RULNZgoVv10F-41" value="Обновление данных о транспортных средствах" style="ellipse;whiteSpace=wrap;html=1;" vertex="1" parent="1">
          <mxGeometry x="520" y="940" width="120" height="80" as="geometry" />
        </mxCell>
        <mxCell id="hMZI5rb7RULNZgoVv10F-43" value="&amp;lt;&amp;lt;include&amp;gt;&amp;gt;" style="html=1;verticalAlign=bottom;labelBackgroundColor=none;endArrow=open;endFill=0;dashed=1;rounded=0;" edge="1" parent="1" source="hMZI5rb7RULNZgoVv10F-10" target="hMZI5rb7RULNZgoVv10F-41">
          <mxGeometry width="160" relative="1" as="geometry">
            <mxPoint x="330" y="570" as="sourcePoint" />
            <mxPoint x="490" y="570" as="targetPoint" />
          </mxGeometry>
        </mxCell>
        <mxCell id="hMZI5rb7RULNZgoVv10F-44" value="Мониторинг доступа" style="ellipse;whiteSpace=wrap;html=1;" vertex="1" parent="1">
          <mxGeometry x="520" y="470" width="120" height="80" as="geometry" />
        </mxCell>
        <mxCell id="hMZI5rb7RULNZgoVv10F-45" value="&amp;lt;&amp;lt;include&amp;gt;&amp;gt;" style="html=1;verticalAlign=bottom;labelBackgroundColor=none;endArrow=open;endFill=0;dashed=1;rounded=0;" edge="1" parent="1" source="hMZI5rb7RULNZgoVv10F-11" target="hMZI5rb7RULNZgoVv10F-44">
          <mxGeometry width="160" relative="1" as="geometry">
            <mxPoint x="330" y="570" as="sourcePoint" />
            <mxPoint x="490" y="570" as="targetPoint" />
          </mxGeometry>
        </mxCell>
        <mxCell id="hMZI5rb7RULNZgoVv10F-46" value="&amp;lt;&amp;lt;extend&amp;gt;&amp;gt;" style="html=1;verticalAlign=bottom;labelBackgroundColor=none;endArrow=open;endFill=0;dashed=1;rounded=0;" edge="1" parent="1" source="hMZI5rb7RULNZgoVv10F-11" target="hMZI5rb7RULNZgoVv10F-7">
          <mxGeometry width="160" relative="1" as="geometry">
            <mxPoint x="300" y="600" as="sourcePoint" />
            <mxPoint x="460" y="600" as="targetPoint" />
          </mxGeometry>
        </mxCell>
      </root>
    </mxGraphModel>
  </diagram>
</mxfile>
